<svg id="visual" viewBox="0 0 900 250" width="900" height="250" xmlns="http://www.w3.org/2000/svg" xmlns:xlink="http://www.w3.org/1999/xlink" version="1.1"><path d="M0 95L30 94.3C60 93.7 120 92.3 180 92.7C240 93 300 95 360 100.3C420 105.7 480 114.3 540 118.2C600 122 660 121 720 121.5C780 122 840 124 870 125L900 126L900 251L870 251C840 251 780 251 720 251C660 251 600 251 540 251C480 251 420 251 360 251C300 251 240 251 180 251C120 251 60 251 30 251L0 251Z" fill="#f1f5f9"></path><path d="M0 141L30 141C60 141 120 141 180 138.5C240 136 300 131 360 128.5C420 126 480 126 540 125.8C600 125.7 660 125.3 720 131.2C780 137 840 149 870 155L900 161L900 251L870 251C840 251 780 251 720 251C660 251 600 251 540 251C480 251 420 251 360 251C300 251 240 251 180 251C120 251 60 251 30 251L0 251Z" fill="#9ca4ae"></path><path d="M0 189L30 184.8C60 180.7 120 172.3 180 166.3C240 160.3 300 156.7 360 161.8C420 167 480 181 540 183.3C600 185.7 660 176.3 720 175.3C780 174.3 840 181.7 870 185.3L900 189L900 251L870 251C840 251 780 251 720 251C660 251 600 251 540 251C480 251 420 251 360 251C300 251 240 251 180 251C120 251 60 251 30 251L0 251Z" fill="#515869"></path><path d="M0 201L30 203.8C60 206.7 120 212.3 180 216C240 219.7 300 221.3 360 219.7C420 218 480 213 540 209.2C600 205.3 660 202.7 720 203.7C780 204.7 840 209.3 870 211.7L900 214L900 251L870 251C840 251 780 251 720 251C660 251 600 251 540 251C480 251 420 251 360 251C300 251 240 251 180 251C120 251 60 251 30 251L0 251Z" fill="#10172a"></path></svg>