<?xml version="1.0" encoding="iso-8859-1"?>
<!-- Uploaded to: SVG Repo, www.svgrepo.com, Generator: SVG Repo Mixer Tools -->
<!DOCTYPE svg PUBLIC "-//W3C//DTD SVG 1.1//EN" "http://www.w3.org/Graphics/SVG/1.1/DTD/svg11.dtd">
<svg height="800px" width="800px" version="1.1" id="Capa_1" xmlns="http://www.w3.org/2000/svg" xmlns:xlink="http://www.w3.org/1999/xlink" 
	 viewBox="0 0 57.022 57.022" xml:space="preserve">
<path style="fill:orange;" d="M13.396,5.688c1.66,0.35,2.939,0.648,4.228,0.884c2.298,0.422,2.691,0.213,3.705-1.849
	c0.146-0.297,0.242-0.618,0.389-0.914c0.83-1.676,1.572-1.912,3.099-0.935c0.833,0.534,1.623,1.136,2.646,1.857
	c1.881-1.52,3.754-3.034,5.854-4.731c0.839,2.045,1.547,3.773,2.217,5.407c2.932,1.001,5.44-0.954,8.46-0.759
	c0.069,1.096,0.22,2.132,0.183,3.162c-0.104,2.956,0.18,3.396,3.055,4.109c0.883,0.219,1.78,0.415,2.682,0.519
	c1.151,0.133,1.592,0.778,1.509,1.851c-0.114,1.484-0.277,2.964-0.396,4.448c-0.026,0.322,0.047,0.652,0.085,1.104
	c1.77,1.124,3.566,2.263,5.267,3.343c0.071,1.569-0.897,2.311-1.749,3.063c-1.27,1.122-1.722,2.344-0.973,3.959
	c0.52,1.121,0.872,2.318,1.375,3.448c0.914,2.054,0.768,2.456-1.33,3.283c-0.46,0.181-0.905,0.399-1.418,0.626
	c-0.775,2.387-0.757,4.83-0.184,7.604c-1.654,0.287-3.159,0.614-4.682,0.786c-0.935,0.105-1.534,0.438-1.864,1.338
	c-0.62,1.688-1.295,3.355-2.063,5.329c-0.884-0.24-1.728-0.403-2.522-0.697c-2.165-0.804-2.603-0.678-3.789,1.273
	c-0.387,0.637-0.792,1.264-1.148,1.917c-0.96,1.757-1.872,1.958-3.493,0.701c-1.102-0.854-2.173-1.749-3.465-2.793
	c-1.346,1.021-2.643,1.883-3.796,2.906c-1.888,1.676-2.743,1.475-3.339-0.898c-0.257-1.021-0.582-2.025-0.947-3.283
	c-2.273,0.601-4.319,1.142-6.428,1.699c-1.402-1.341-1.817-3.13-2.112-4.909c-0.217-1.31-0.83-1.864-2.115-1.891
	c-0.824-0.018-1.644-0.18-2.467-0.271c-1.789-0.198-2.104-0.538-1.958-2.364c0.079-0.987,0.302-1.962,0.447-2.945
	c0.311-2.119,0.3-2.132-1.66-2.946c-2.34-0.973-2.47-1.083-3.647-3.123c1.289-2.062,2.587-4.141,3.788-6.062
	c-0.964-2.242-3.711-2.498-4.198-4.938c2.138-1.487,4.272-2.972,6.571-4.571c-1.13-2.011-2.125-3.78-3.265-5.807
	c2.723-0.494,5.188-0.941,7.806-1.417C12.279,10.113,12.799,8.051,13.396,5.688z M41.882,6.5c-1.249,0.224-2.122,0.374-2.991,0.54
	c-0.81,0.154-1.61,0.394-2.426,0.477c-2.285,0.234-2.94-0.194-3.734-2.294c-0.19-0.504-0.38-1.008-0.689-1.832
	c-0.827,0.806-1.435,1.451-2.098,2.033c-1.743,1.533-2.882,1.608-4.884,0.414c-0.47-0.28-0.978-0.496-1.587-0.801
	c-0.768,1.364-1.445,2.568-2.21,3.929c-1.959-0.309-3.89-0.613-6.034-0.951c-0.618,2.195-1.21,4.299-1.771,6.298
	c-2.211,0.26-4.151,0.489-6.358,0.749c0.973,1.807,1.813,3.367,2.776,5.155c-2.178,1.576-4.207,3.045-6.146,4.448
	c0.086,0.337,0.08,0.444,0.129,0.486c0.692,0.584,1.388,1.165,2.091,1.737c1.477,1.202,1.653,1.975,0.674,3.573
	c-0.943,1.538-1.957,3.033-3.113,4.815c1.962,1.031,3.74,1.964,5.561,2.92c-0.292,2.063-0.565,3.996-0.86,6.083
	c1.512,0.293,2.789,0.558,4.073,0.786c1.412,0.251,2.16,0.941,2.157,2.506c-0.002,1.021,0.386,2.042,0.636,3.241
	c0.979-0.184,1.7-0.292,2.407-0.459c0.805-0.19,1.588-0.478,2.397-0.647c1.968-0.411,2.468-0.167,3.361,1.595
	c0.394,0.778,0.738,1.582,1.189,2.553c1.256-0.849,2.245-1.589,3.302-2.214c1.556-0.92,1.959-0.813,3.471,0.354
	c0.949,0.732,1.974,1.365,3.06,2.106c0.787-1.392,1.411-2.551,2.086-3.68c0.93-1.555,1.228-1.619,3-1.11
	c1.001,0.288,2.039,0.45,3.271,0.714c0.273-1.204,0.524-2.144,0.696-3.099c0.448-2.482,0.919-2.889,3.404-2.958
	c0.88-0.024,1.757-0.147,2.883-0.248c0.034-1.678,0.084-3.148,0.088-4.618c0.009-2.879,0-2.875,2.777-3.773
	c0.129-0.042,0.205-0.244,0.456-0.564c-0.329-0.951-0.68-2.034-1.078-3.1c-0.934-2.498-1.582-4.926,1.224-6.749
	c0.184-0.119,0.259-0.405,0.543-0.876c-1.692-1.005-3.359-1.994-4.996-2.966c0.117-2.256,0.229-4.447,0.342-6.62
	c-1.768-0.509-3.204-0.885-4.616-1.337c-2.002-0.641-2.372-1.146-2.427-3.159C41.886,8.901,41.893,7.844,41.882,6.5z"/>
</svg>