<svg id="visual" viewBox="0 0 900 450" width="900" height="450" xmlns="http://www.w3.org/2000/svg" xmlns:xlink="http://www.w3.org/1999/xlink" version="1.1"><path d="M0 296L37.5 302.7C75 309.3 150 322.7 225 324.2C300 325.7 375 315.3 450 305.7C525 296 600 287 675 286.2C750 285.3 825 292.7 862.5 296.3L900 300L900 451L862.5 451C825 451 750 451 675 451C600 451 525 451 450 451C375 451 300 451 225 451C150 451 75 451 37.5 451L0 451Z" fill="#e4e9f2"></path><path d="M0 360L37.5 357.7C75 355.3 150 350.7 225 346C300 341.3 375 336.7 450 332C525 327.3 600 322.7 675 324.7C750 326.7 825 335.3 862.5 339.7L900 344L900 451L862.5 451C825 451 750 451 675 451C600 451 525 451 450 451C375 451 300 451 225 451C150 451 75 451 37.5 451L0 451Z" fill="#eaeff6"></path><path d="M0 365L37.5 366.7C75 368.3 150 371.7 225 376.2C300 380.7 375 386.3 450 384.8C525 383.3 600 374.7 675 372.3C750 370 825 374 862.5 376L900 378L900 451L862.5 451C825 451 750 451 675 451C600 451 525 451 450 451C375 451 300 451 225 451C150 451 75 451 37.5 451L0 451Z" fill="#f1f5f9"></path></svg>