<svg id="visual" viewBox="0 0 900 450" width="900" height="450" xmlns="http://www.w3.org/2000/svg" xmlns:xlink="http://www.w3.org/1999/xlink" version="1.1"><path d="M0 100L900 55L900 0L0 0Z" fill="#038373"></path><path d="M0 159L900 82L900 53L0 98Z" fill="#00977d"></path><path d="M0 190L900 114L900 80L0 157Z" fill="#00ab85"></path><path d="M0 190L900 150L900 112L0 188Z" fill="#00c08c"></path><path d="M0 217L900 195L900 148L0 188Z" fill="#00cc8e"></path><path d="M0 217L900 204L900 193L0 215Z" fill="#00cc8e"></path><path d="M0 330L900 222L900 202L0 215Z" fill="#00c08c"></path><path d="M0 348L900 271L900 220L0 328Z" fill="#00ab85"></path><path d="M0 411L900 406L900 269L0 346Z" fill="#00977d"></path><path d="M0 451L900 451L900 404L0 409Z" fill="#038373"></path></svg>