<svg id="visual" viewBox="0 0 900 250" width="900" height="250" xmlns="http://www.w3.org/2000/svg" xmlns:xlink="http://www.w3.org/1999/xlink" version="1.1"><path d="M0 111L30 115.5C60 120 120 129 180 130.8C240 132.7 300 127.3 360 125.8C420 124.3 480 126.7 540 127.2C600 127.7 660 126.3 720 123.2C780 120 840 115 870 112.5L900 110L900 251L870 251C840 251 780 251 720 251C660 251 600 251 540 251C480 251 420 251 360 251C300 251 240 251 180 251C120 251 60 251 30 251L0 251Z" fill="#f1f5f9"></path><path d="M0 165L30 163.2C60 161.3 120 157.7 180 155.5C240 153.3 300 152.7 360 152.5C420 152.3 480 152.7 540 154.5C600 156.3 660 159.7 720 162.2C780 164.7 840 166.3 870 167.2L900 168L900 251L870 251C840 251 780 251 720 251C660 251 600 251 540 251C480 251 420 251 360 251C300 251 240 251 180 251C120 251 60 251 30 251L0 251Z" fill="#eaeff6"></path><path d="M0 205L30 205.2C60 205.3 120 205.7 180 203.7C240 201.7 300 197.3 360 195.3C420 193.3 480 193.7 540 194.8C600 196 660 198 720 197.3C780 196.7 840 193.3 870 191.7L900 190L900 251L870 251C840 251 780 251 720 251C660 251 600 251 540 251C480 251 420 251 360 251C300 251 240 251 180 251C120 251 60 251 30 251L0 251Z" fill="#e4e9f2"></path></svg>