<svg id="visual" viewBox="0 0 450 900" width="450" height="900" xmlns="http://www.w3.org/2000/svg" xmlns:xlink="http://www.w3.org/1999/xlink" version="1.1"><path d="M0 199L450 109L450 0L0 0Z" fill="#038373"></path><path d="M0 316L450 163L450 107L0 197Z" fill="#00977d"></path><path d="M0 379L450 226L450 161L0 314Z" fill="#00ab85"></path><path d="M0 379L450 298L450 224L0 377Z" fill="#00c08c"></path><path d="M0 433L450 388L450 296L0 377Z" fill="#00cc8e"></path><path d="M0 433L450 406L450 386L0 431Z" fill="#00cc8e"></path><path d="M0 658L450 442L450 404L0 431Z" fill="#00c08c"></path><path d="M0 694L450 541L450 440L0 656Z" fill="#00ab85"></path><path d="M0 820L450 811L450 539L0 692Z" fill="#00977d"></path><path d="M0 901L450 901L450 809L0 818Z" fill="#038373"></path></svg>