<svg id="visual" viewBox="0 0 900 250" width="900" height="250" xmlns="http://www.w3.org/2000/svg" xmlns:xlink="http://www.w3.org/1999/xlink" version="1.1"><path d="M0 49L75 50.2C150 51.3 300 53.7 450 58.7C600 63.7 750 71.3 825 75.2L900 79L900 0L825 0C750 0 600 0 450 0C300 0 150 0 75 0L0 0Z" fill="#f9fafc"></path><path d="M0 74L75 76C150 78 300 82 450 91.2C600 100.3 750 114.7 825 121.8L900 129L900 77L825 73.2C750 69.3 600 61.7 450 56.7C300 51.7 150 49.3 75 48.2L0 47Z" fill="#b7bbc3"></path><path d="M0 106L75 107.7C150 109.3 300 112.7 450 119C600 125.3 750 134.7 825 139.3L900 144L900 127L825 119.8C750 112.7 600 98.3 450 89.2C300 80 150 76 75 74L0 72Z" fill="#7a7f8c"></path><path d="M0 171L75 167.7C150 164.3 300 157.7 450 159.8C600 162 750 173 825 178.5L900 184L900 142L825 137.3C750 132.7 600 123.3 450 117C300 110.7 150 107.3 75 105.7L0 104Z" fill="#424859"></path><path d="M0 251L75 251C150 251 300 251 450 251C600 251 750 251 825 251L900 251L900 182L825 176.5C750 171 600 160 450 157.8C300 155.7 150 162.3 75 165.7L0 169Z" fill="#10172a"></path></svg>