<svg xmlns="http://www.w3.org/2000/svg" version="1.1" xmlns:xlink="http://www.w3.org/1999/xlink" xmlns:svgjs="http://svgjs.dev/svgjs" viewBox="0 0 800 800"><defs><linearGradient x1="50%" y1="0%" x2="50%" y2="100%" id="ssscribble-grad"><stop stop-color="hsl(162, 100%, 58%)" stop-opacity="1" offset="0%"></stop><stop stop-color="hsl(270, 73%, 53%)" stop-opacity="1" offset="100%"></stop></linearGradient></defs><g fill="none" stroke-width="1" stroke="url(#ssscribble-grad)" stroke-linecap="round"><path d="M699.19 464.83C755.69 485.88 803.52 513.86 837.98 547.4 859.15 580.26 862.64 617.17 849.58 655.32 822.91 689.64 784.23 720.78 737.91 744.24 686.15 757.87 633.06 758.29 581.96 742.59 532.42 715.56 487.71 674.64 448.55 624.55 412.95 577.95 382.23 537.73 355.54 513.84 331.21 515.9 309.03 544.78 287.98 599.52 267.62 672.47 247.08 751.63 226.03 820.91 204.97 866.32 184.4 876.51 165.04 851.94 146.38 799.27 130.26 728.1 118.1 651.85 108.31 580.13 104.35 523.14 107.49 485.49 114.2 468.45 128.69 469.54 150.63 483.15 174.13 508.6 202.25 536.27 232.09 560.78 266.39 594.28 277.41 614.01 240.37 602.14 197.79 590.77 145.69 574.2 89.19 553.15 33.32 532.09 -12.75 507.55 -44.63 479.21 -62.58 449.78 -62.66 414.66 -46.33 373.02 -16.67 328.8 24.38 277.25 72.37 219.74 125.13 162.78 178.51 104.88 229.31 51.83 278.02 10.62 321.58 -15.44 359.43 -20.33 393.47 -4.6 422.7 33.48 448.1 89.77 471.08 150.58 492.19 209.77 512.51 254.32 532.13 270.77 552.28 256.33 573.33 210.94 594.39 141.66 615.35 66.77 635.45 1.94 654.84 -44.68 672.03 -61.59 685.54 -48.22 696.63 -8.9 702.08 50.19 700.49 118.72 695.09 190.74 681.76 256.62 660.65 311.26 637.44 354.55 609.04 384.37 578.19 403.18 541.04 413.95 520.86 416.92 552.97 424.46 592.97 430.63 643.32 443.77 699.19 464.83Q699.19 464.83 699.19 464.83" opacity="0.48"></path><path d="M668.45 550.38C719.45 569.33 763.59 591.35 797.28 615.16 821.02 637.97 830.65 660.57 826.57 680.46 811.12 696.39 784.5 706.05 749.77 706.63 708.71 700.18 664.14 682.51 618.98 653.47 572.89 620.12 529.07 580.21 488.9 538.9 450.25 506.45 415.6 484.28 385.01 478.87 355.85 495.39 329.81 533.07 306.54 589.47 283.76 657.7 262.88 728.66 243.93 790.32 224.98 832.58 208.86 846.41 195.9 831.6 183.42 792.54 174.99 734.92 171.31 668.4 169.06 599.91 172.5 538.19 181.94 488.66 192.91 453 209.52 432.51 230.78 424.83 251.1 429.41 273.2 440.73 294.53 454.3 314.34 479.94 300.7 508.35 259.43 505.32 218.43 500.53 170.45 488.73 119.45 469.78 68.97 450.84 26.32 425.63 -5.13 394.69 -26.04 363.44 -32.56 326.06 -25.38 283.4 -6.92 240.96 22.3 194.68 59.11 147.36 101.79 104.58 147.38 66.06 193.02 36.64 239.14 19.47 282.59 17.48 322.15 33.41 359.92 63.2 393.61 107.93 423.3 162.52 451.46 215.15 476.67 261.99 499.34 293.75 521.51 301.25 542.06 283.59 561.01 241.35 579.96 179.69 596.42 112.57 609.99 51.65 627.69 -10.89 638.91 11.89 629.1 83.66 618.75 144.7 602.51 207.08 581.22 265.27 560.42 319.14 537.3 364.02 514.35 399.68 497.27 428.31 485.04 449.86 480.47 466.77 487.19 479.72 504.49 491.59 532.71 504.52 571.48 516.45 617.97 531.43 668.45 550.38Q668.45 550.38 668.45 550.38" opacity="0.65"></path><path d="M638.22 572.36C754.72 619.39 749.51 627.14 652.72 551.69 573.7 496.36 498.99 452.16 437.25 455.61 377.66 524.95 330.09 643.44 296.4 759.92 262.71 816.96 246.09 781.9 247.3 684.12 250.66 563.24 272.78 462.93 307.65 403.21 333.07 381.75 351.78 384.16 347.92 387.39 308.73 398.32 238.37 390.68 150.22 357 63.63 323.31 10.94 266.75 1.42 197.44 27.42 135.83 85.82 80.84 157.7 58.14 237.79 73.71 312.37 138.29 373.5 234.47 432.09 307.56 478.94 328.96 512.63 271.92 554.99 103.02 549.7 67.17 502.76 206.62 475.05 310.82 452.38 394.22 451.07 452.99 485.29 501.16 551.63 538.67 638.22 572.36Q638.22 572.36 638.22 572.36" opacity="0.27"></path><path d="M607.42 521.09C712.62 556.01 743.02 520.21 677.9 454.21 617.47 422.93 555.31 412.14 500.94 443.36 446.06 520.62 401.85 628.73 372.37 729.31 342.89 783.89 330.94 767.01 334.73 695.69 338.01 594.59 354.17 494.56 375.96 417.92 386.29 364.38 387.34 334.83 369.12 316.42 324.84 307.16 258.35 291.7 180.42 262.22 103.76 232.74 52.54 192.04 34.15 150.21 42.34 117.54 78.8 101.08 130.7 115.98 193.29 153.99 256.48 222.75 311.16 302.24 366.01 351.96 410.06 356.89 439.54 302.31 469.01 201.73 481.13 105.57 477.37 49.91 473.78 40.3 456.59 82.36 432.63 152.28 419.37 238.99 414.18 320.84 427.6 385.48 467.59 446.34 530.76 491.61 607.42 521.09Q607.42 521.09 607.42 521.09" opacity="0.27"></path><path d="M577.03 418.6C644.38 443.87 694.77 448.6 721.97 435.72 731.4 424.26 717.78 400.97 688.49 377.73 648.62 373.92 603.32 391.85 560.86 441.41 516.53 519.22 479.42 614.06 454.15 698.85 428.88 749.54 417.85 747.19 418.4 700.85 417.07 625.11 422.94 538.81 429.7 461.47 425.87 392.82 412.68 341.96 384.73 305.86 339.01 276.44 278.38 251.19 211.03 225.93 120.64 189.21 75.85 161.42 116.69 202.66 159.14 246.89 206.14 306.38 249.55 363.61 294.6 391.42 332.02 383.55 357.28 332.88 382.55 248.08 393.28 163.49 392.01 104.18 392.39 73.13 384.82 82 375.49 118.93 376.4 175.29 385.93 238.01 409.98 293.25 452.43 349.93 510.6 393.33 577.03 418.6Q577.03 418.6 577.03 418.6" opacity="0.52"></path><path d="M546.72 308.23C603.22 329.29 647.79 336.05 676.19 332.61 693.63 332.72 694.05 330.24 681.26 334 660.44 353.28 632.65 390.46 603.78 447.9 572.82 519.71 544.89 599.14 523.84 668.42 502.78 713.83 490.59 721.99 485.06 697.28 477.44 648.22 472.36 584.25 465.59 519.69 450.78 454.06 428.03 398.1 395.16 355.13 351.33 315.08 298.22 284.45 241.72 263.4 185.84 242.34 142.94 232.85 116.87 236.41 102.3 242.89 104.77 265.99 120.04 304.02 143.29 340.98 172.91 382.62 202.96 416.25 235 425.52 263.47 408.83 284.53 363.42 305.59 294.14 317.23 223.24 321.68 166.86 329.74 117.44 357.97 159.84 397.9 213.88 439.41 253.81 490.84 287.18 546.72 308.23Q546.72 308.23 546.72 308.23" opacity="0.77"></path><path d="M516.22 236.68C604.37 270.36 651.84 290.45 654.58 327.71 637.49 400.8 599.79 521.45 566.11 637.92 532.42 694.96 509.12 656.33 482.05 575.28 435.15 474.12 360.37 392.37 272.22 358.68 163.78 335.37 183.95 445.3 237.68 393.92 271.37 277.45 292.27 184.12 315.38 155.18 358.62 162.07 429.63 202.99 516.22 236.68Q516.22 236.68 516.22 236.68" opacity="0.92"></path><path d="M485.59 234.28C552.92 259.55 595.75 298.26 608.9 355.59 612.46 426.9 596.6 522.58 571.34 607.37 546.07 658.06 516.17 651.56 479.5 611.61 433.24 552.82 369.92 496.69 302.59 471.43 215.88 451.35 192.87 482.05 226.99 424.37 252.26 339.58 280.31 264.38 314.21 226.19 358.12 201.98 419.16 209.02 485.59 234.28Q485.59 234.28 485.59 234.28" opacity="0.76"></path><path d="M455.21 302.22C543.34 335.9 572.1 460.46 538.41 576.95 504.73 633.96 421.34 587.64 333.21 553.96 246.62 520.27 221.19 511.96 254.87 454.95 288.56 338.46 368.62 268.53 455.21 302.22Q455.21 302.22 455.21 302.22" opacity="0.08"></path></g></svg>